<?xml version="1.0" encoding="UTF-8" standalone="no"?>
<!-- Created with Inkscape (http://www.inkscape.org/) -->

<svg
   width="1.193821in"
   height="1.3260043in"
   viewBox="0 0 114.60681 127.29641"
   version="1.1"
   id="svg5"
   inkscape:export-filename="hcslogo.png"
   inkscape:export-xdpi="96"
   inkscape:export-ydpi="96"
   inkscape:version="1.2.2 (732a01da63, 2022-12-09)"
   sodipodi:docname="hcslogo.svg"
   xmlns:inkscape="http://www.inkscape.org/namespaces/inkscape"
   xmlns:sodipodi="http://sodipodi.sourceforge.net/DTD/sodipodi-0.dtd"
   xmlns="http://www.w3.org/2000/svg"
   xmlns:svg="http://www.w3.org/2000/svg">
  <sodipodi:namedview
     id="namedview7"
     pagecolor="#505050"
     bordercolor="#ffffff"
     borderopacity="1"
     inkscape:showpageshadow="0"
     inkscape:pageopacity="0"
     inkscape:pagecheckerboard="1"
     inkscape:deskcolor="#505050"
     inkscape:document-units="in"
     showgrid="false"
     inkscape:zoom="256"
     inkscape:cx="118.12305"
     inkscape:cy="81.796875"
     inkscape:window-width="1920"
     inkscape:window-height="1009"
     inkscape:window-x="1912"
     inkscape:window-y="-8"
     inkscape:window-maximized="1"
     inkscape:current-layer="layer1" />
  <defs
     id="defs2" />
  <g
     inkscape:label="Layer 1"
     inkscape:groupmode="layer"
     id="layer1"
     transform="matrix(0.82660006,0,0,0.82660006,-22.050204,-19.838403)">
    <path
       id="path713"
       d="m 137.41992,24 c -7.61968,0 -13.73893,2.249191 -18.35937,6.748046 -1.40705,1.382151 -2.59554,2.864238 -3.57031,4.445313 -4.6036,-6.582764 -11.40358,-9.875 -20.400399,-9.875 -9.84885,0 -17.386839,3.727983 -22.615239,11.185547 -4.200886,5.991962 -6.709575,14.094275 -7.535156,24.298828 L 64.371093,61.771484 40.416015,61.28125 V 26.871093 H 26.675781 V 109.85743 H 40.416015 V 72.892576 h 24.3125 c 0.489007,11.00936 2.92586,19.95806 7.320313,26.837904 4.944687,7.74128 12.462659,11.61328 22.55469,11.61328 9.746472,0 16.944212,-3.63827 21.593752,-10.90821 4.06713,6.88371 10.35354,9.58985 21.04101,9.58985 8.87612,0 15.76576,-2.45327 20.66992,-7.35742 4.94469,-4.90417 7.41602,-10.841314 7.41602,-17.812514 0,-4.2962 -0.95249,-8.06617 -2.85742,-11.30859 -1.86439,-3.28295 -4.3157,-5.896347 -7.35547,-7.841798 -3.03977,-1.945451 -7.37606,-3.992523 -13.00977,-6.140625 -6.60642,-2.512875 -11.02473,-4.66003 -13.2539,-6.44336 -2.18863,-1.823861 -3.2832,-4.257107 -3.2832,-7.296875 0,-2.756056 0.97252,-5.18735 2.91796,-7.294922 1.98598,-2.148102 4.78343,-3.222656 8.39063,-3.222656 3.89089,0 6.95052,1.054537 9.17969,3.16211 2.26969,2.067041 4.09462,5.288751 5.47265,9.666015 L 163.25781,44.0625 C 159.52904,30.687523 150.9165,24 137.41992,24 Z M 95.152348,36.685546 c 7.943922,0 12.604392,6.283284 13.982422,18.847657 l 0.0176,-0.002 c 0.72518,3.8283 10.71726,9.476298 13.61523,11.207031 2.95871,1.7428 7.76124,3.869938 14.4082,6.382812 6.28219,2.39128 10.21425,4.64243 11.79492,6.75 1.58068,2.10757 2.3711,4.3968 2.3711,6.86914 0,3.36401 -1.15462,6.2015 -3.46484,8.511724 -11.98368,8.91908 -23.8321,-1.483338 -26.09757,-11.570274 l -0.19922,-0.0449 c -9.57141,-1.20571 -14.83774,8.59597 -16.94531,11.716804 -2.06704,3.08031 -5.22675,4.6211 -9.482422,4.6211 -10.618927,0 -15.929692,-10.173364 -15.929692,-30.519543 0,-21.845797 5.310765,-32.769532 15.929692,-32.769532 z"
       style="font-size:124.509px;font-family:'Franklin Gothic Medium Cond';-inkscape-font-specification:'Franklin Gothic Medium Cond';text-align:center;text-anchor:middle;fill:#ffffff;stroke-width:30.9826"
       sodipodi:nodetypes="sccsscccccccccsscscscsccscscccscccccssccccsscc" />
    <path
       style="fill:#ffffff;stroke-width:47.777"
       id="path843"
       sodipodi:type="arc"
       sodipodi:cx="96"
       sodipodi:cy="117.18881"
       sodipodi:rx="60.811184"
       sodipodi:ry="60.811184"
       sodipodi:start="0"
       sodipodi:end="3.1415927"
       sodipodi:arc-type="slice"
       d="m 156.81118,117.18881 a 60.811184,60.811184 0 0 1 -30.40559,52.66403 60.811184,60.811184 0 0 1 -60.811184,0 60.811184,60.811184 0 0 1 -30.40559,-52.66403 H 96 Z" />
  </g>
</svg>
